<svg width="30" height="20" viewBox="0 0 30 20" fill="none" xmlns="http://www.w3.org/2000/svg">
<rect x="5.36621" y="4.84937" width="22.1039" height="4.4602" transform="rotate(20.4269 5.36621 4.84937)" fill="#B2B0B0"/>
<ellipse cx="5.45298" cy="4.61736" rx="2.60046" ry="2.47789" transform="rotate(20.4269 5.45298 4.61736)" fill="#B2B0B0"/>
<ellipse cx="3.80943" cy="9.02923" rx="2.60046" ry="2.47789" transform="rotate(20.4269 3.80943 9.02923)" fill="#B2B0B0"/>
<ellipse cx="25.5223" cy="11.8276" rx="2.60046" ry="2.47789" transform="rotate(20.4269 25.5223 11.8276)" fill="#B2B0B0"/>
<ellipse cx="23.8797" cy="16.2392" rx="2.60046" ry="2.47789" transform="rotate(20.4269 23.8797 16.2392)" fill="#B2B0B0"/>
<rect x="5.21875" y="3.6936" width="22.1039" height="4.4602" transform="rotate(20.4269 5.21875 3.6936)" fill="#D9D9D9"/>
<ellipse cx="5.30552" cy="3.4616" rx="2.60046" ry="2.47789" transform="rotate(20.4269 5.30552 3.4616)" fill="#D9D9D9"/>
<ellipse cx="3.66197" cy="7.87347" rx="2.60046" ry="2.47789" transform="rotate(20.4269 3.66197 7.87347)" fill="#D9D9D9"/>
<ellipse cx="25.3749" cy="10.6718" rx="2.60046" ry="2.47789" transform="rotate(20.4269 25.3749 10.6718)" fill="#D9D9D9"/>
<ellipse cx="23.7323" cy="15.0837" rx="2.60046" ry="2.47789" transform="rotate(20.4269 23.7323 15.0837)" fill="#D9D9D9"/>
</svg>
