<svg width="16" height="24" viewBox="0 0 16 24" fill="none" xmlns="http://www.w3.org/2000/svg">
<rect x="6.2168" y="3.52783" width="18.1053" height="3.65335" transform="rotate(70.3213 6.2168 3.52783)" fill="#B2B0B0"/>
<ellipse cx="6.40872" cy="3.45962" rx="2.13004" ry="2.02964" transform="rotate(70.3213 6.40872 3.45962)" fill="#B2B0B0"/>
<ellipse cx="2.77786" cy="4.75796" rx="2.13004" ry="2.02964" transform="rotate(70.3213 2.77786 4.75796)" fill="#B2B0B0"/>
<ellipse cx="12.482" cy="19.8375" rx="2.13004" ry="2.02964" transform="rotate(70.3213 12.482 19.8375)" fill="#B2B0B0"/>
<ellipse cx="8.85013" cy="21.1359" rx="2.13004" ry="2.02964" transform="rotate(70.3213 8.85013 21.1359)" fill="#B2B0B0"/>
<rect x="6.86328" y="2.82568" width="18.1053" height="3.65335" transform="rotate(70.3213 6.86328 2.82568)" fill="#D9D9D9"/>
<ellipse cx="7.05423" cy="2.75747" rx="2.13004" ry="2.02964" transform="rotate(70.3213 7.05423 2.75747)" fill="#D9D9D9"/>
<ellipse cx="3.42337" cy="4.0563" rx="2.13004" ry="2.02964" transform="rotate(70.3213 3.42337 4.0563)" fill="#D9D9D9"/>
<ellipse cx="13.1275" cy="19.1354" rx="2.13004" ry="2.02964" transform="rotate(70.3213 13.1275 19.1354)" fill="#D9D9D9"/>
<ellipse cx="9.49564" cy="20.4342" rx="2.13004" ry="2.02964" transform="rotate(70.3213 9.49564 20.4342)" fill="#D9D9D9"/>
</svg>
