<svg width="1200" height="800" viewBox="0 0 1200 800" fill="none" xmlns="http://www.w3.org/2000/svg">
<rect width="1200" height="800" fill="#272222"/>
<rect x="150" y="100" width="900" height="600" fill="#564B4B"/>
<path d="M1199.5 799.065L1050.5 699.732V100.268L1199.5 0.933594V799.065Z" fill="#564B4B" stroke="#272222"/>
<path d="M0.5 799.065L149.5 699.732V100.268L0.5 0.933594V799.065Z" fill="#564B4B" stroke="#272222"/>
<rect x="792.5" y="518.5" width="43" height="68" rx="10.5" fill="#555555" stroke="#403E3E"/>
<circle cx="814" cy="542" r="6" fill="#403E3E"/>
<circle cx="814" cy="563" r="6" fill="#403E3E"/>
<path d="M562.67 275.5C564.594 272.167 569.406 272.167 571.33 275.5L582.588 295C584.513 298.333 582.107 302.5 578.258 302.5H555.742C551.893 302.5 549.487 298.333 551.412 295L562.67 275.5Z" fill="#282727"/>
<path d="M634.378 299.675C632.432 302.996 627.621 302.965 625.718 299.619L614.585 280.047C612.682 276.702 615.115 272.55 618.964 272.575L641.48 272.72C645.329 272.745 647.707 276.927 645.761 280.248L634.378 299.675Z" fill="#282727"/>
<rect x="435.5" y="323.5" width="163" height="385" fill="#403E3E" stroke="#555555"/>
<rect x="599.5" y="323.5" width="163" height="385" fill="#403E3E" stroke="#555555"/>
<rect x="784" y="468" width="61" height="37" rx="8" fill="#313131"/>
<rect x="836" y="472" width="3" height="28" rx="1.5" fill="#A93535"/>
<rect x="828" y="475" width="2" height="23" rx="1" fill="#212121"/>
<rect x="821" y="475" width="2" height="23" rx="1" fill="#212121"/>
<rect x="814" y="475" width="2" height="23" rx="1" fill="#212121"/>
<rect x="807" y="475" width="2" height="23" rx="1" fill="#212121"/>
<rect x="800" y="475" width="2" height="23" rx="1" fill="#212121"/>
<rect x="793" y="475" width="2" height="23" rx="1" fill="#212121"/>
<path d="M984.678 685.493C989.246 683.313 994.606 683.585 998.931 686.216L1074.31 732.07C1084.97 738.556 1083.52 754.465 1071.85 758.904L1025.07 776.713C1021.2 778.187 1016.89 777.994 1013.16 776.18L932.977 737.126C921.684 731.626 921.749 715.51 933.087 710.102L984.678 685.493Z" fill="#726364"/>
<path d="M897.426 369.861C898.264 344.124 921.381 324.889 946.842 328.745L1036.48 342.319C1057.92 345.565 1073.58 364.26 1073.03 385.933L1064.13 734.143C1063.35 764.652 1031.92 784.661 1003.95 772.458L912.732 732.662C896.592 725.621 886.376 709.45 886.949 691.851L897.426 369.861Z" fill="#BBA0A0"/>
<path d="M903.573 378.688C904.385 352.836 927.671 333.545 953.223 337.557L1030.76 349.733C1052.07 353.081 1067.6 371.704 1067.07 393.272L1058.89 725.137C1058.14 755.912 1026.23 775.944 998.181 763.255L919.154 727.499C903.32 720.336 893.355 704.345 893.9 686.974L903.573 378.688Z" fill="#DBC6C6"/>
</svg>
