<svg width="1200" height="802" viewBox="0 0 1200 802" fill="none" xmlns="http://www.w3.org/2000/svg">
<rect width="1200" height="800" fill="#3A2329"/>
<mask id="mask0_5_997" style="mask-type:alpha" maskUnits="userSpaceOnUse" x="0" y="2" width="1200" height="800">
<rect y="2" width="1200" height="800" fill="#3A2329"/>
</mask>
<g mask="url(#mask0_5_997)">
<rect width="35.0983" height="120.073" transform="matrix(-1 0 0 1 57.8179 27.365)" fill="#482C34"/>
<circle cx="16.3176" cy="16.3176" r="16.3176" transform="matrix(-1 0 0 1 71.3638 11.0474)" fill="#482C34"/>
<circle cx="16.3176" cy="16.3176" r="16.3176" transform="matrix(-1 0 0 1 41.4995 11.0474)" fill="#482C34"/>
<circle cx="16.3176" cy="16.3176" r="16.3176" transform="matrix(-1 0 0 1 70.1323 133.891)" fill="#482C34"/>
<circle cx="16.3176" cy="16.3176" r="16.3176" transform="matrix(-1 0 0 1 40.2686 133.891)" fill="#482C34"/>
<rect width="35.0983" height="120.073" transform="matrix(-1 0 0 1 59.9722 232.413)" fill="#482C34"/>
<circle cx="16.3176" cy="16.3176" r="16.3176" transform="matrix(-1 0 0 1 73.519 216.095)" fill="#482C34"/>
<circle cx="16.3176" cy="16.3176" r="16.3176" transform="matrix(-1 0 0 1 43.6548 216.095)" fill="#482C34"/>
<circle cx="16.3176" cy="16.3176" r="16.3176" transform="matrix(-1 0 0 1 72.2876 338.939)" fill="#482C34"/>
<circle cx="16.3176" cy="16.3176" r="16.3176" transform="matrix(-1 0 0 1 42.4233 338.939)" fill="#482C34"/>
<rect width="35.0983" height="120.073" transform="matrix(-1 0 0 1 54.4307 642.508)" fill="#482C34"/>
<circle cx="16.3176" cy="16.3176" r="16.3176" transform="matrix(-1 0 0 1 67.9771 626.191)" fill="#482C34"/>
<circle cx="16.3176" cy="16.3176" r="16.3176" transform="matrix(-1 0 0 1 38.1128 626.191)" fill="#482C34"/>
<circle cx="16.3176" cy="16.3176" r="16.3176" transform="matrix(-1 0 0 1 66.7466 749.035)" fill="#482C34"/>
<circle cx="16.3176" cy="16.3176" r="16.3176" transform="matrix(-1 0 0 1 36.8813 749.035)" fill="#482C34"/>
<rect width="35.0983" height="120.073" transform="matrix(-1 0 0 1 56.5859 437.461)" fill="#482C34"/>
<circle cx="16.3176" cy="16.3176" r="16.3176" transform="matrix(-1 0 0 1 70.1323 421.143)" fill="#482C34"/>
<circle cx="16.3176" cy="16.3176" r="16.3176" transform="matrix(-1 0 0 1 40.2686 421.143)" fill="#482C34"/>
<circle cx="16.3176" cy="16.3176" r="16.3176" transform="matrix(-1 0 0 1 68.9009 543.987)" fill="#482C34"/>
<circle cx="16.3176" cy="16.3176" r="16.3176" transform="matrix(-1 0 0 1 39.0371 543.987)" fill="#482C34"/>
<rect width="35.0983" height="120.073" transform="matrix(-1 0 0 1 175.801 127.87)" fill="#482C34"/>
<circle cx="16.3176" cy="16.3176" r="16.3176" transform="matrix(-1 0 0 1 189.348 111.552)" fill="#482C34"/>
<circle cx="16.3176" cy="16.3176" r="16.3176" transform="matrix(-1 0 0 1 159.483 111.552)" fill="#482C34"/>
<circle cx="16.3176" cy="16.3176" r="16.3176" transform="matrix(-1 0 0 1 188.116 234.396)" fill="#482C34"/>
<circle cx="16.3176" cy="16.3176" r="16.3176" transform="matrix(-1 0 0 1 158.252 234.396)" fill="#482C34"/>
<rect width="35.0983" height="120.073" transform="matrix(-1 0 0 1 177.956 -77.1772)" fill="#482C34"/>
<circle cx="16.3176" cy="16.3176" r="16.3176" transform="matrix(-1 0 0 1 190.271 29.3491)" fill="#482C34"/>
<circle cx="16.3176" cy="16.3176" r="16.3176" transform="matrix(-1 0 0 1 160.407 29.3491)" fill="#482C34"/>
<rect width="35.0983" height="120.073" transform="matrix(-1 0 0 1 177.956 332.918)" fill="#482C34"/>
<circle cx="16.3176" cy="16.3176" r="16.3176" transform="matrix(-1 0 0 1 191.503 316.601)" fill="#482C34"/>
<circle cx="16.3176" cy="16.3176" r="16.3176" transform="matrix(-1 0 0 1 161.638 316.601)" fill="#482C34"/>
<circle cx="16.3176" cy="16.3176" r="16.3176" transform="matrix(-1 0 0 1 190.271 439.445)" fill="#482C34"/>
<circle cx="16.3176" cy="16.3176" r="16.3176" transform="matrix(-1 0 0 1 160.407 439.445)" fill="#482C34"/>
<rect width="35.0983" height="120.073" transform="matrix(-1 0 0 1 172.414 743.014)" fill="#482C34"/>
<circle cx="16.3176" cy="16.3176" r="16.3176" transform="matrix(-1 0 0 1 185.961 726.696)" fill="#482C34"/>
<circle cx="16.3176" cy="16.3176" r="16.3176" transform="matrix(-1 0 0 1 156.097 726.696)" fill="#482C34"/>
<rect width="35.0983" height="120.073" transform="matrix(-1 0 0 1 174.569 537.966)" fill="#482C34"/>
<circle cx="16.3176" cy="16.3176" r="16.3176" transform="matrix(-1 0 0 1 188.116 521.648)" fill="#482C34"/>
<circle cx="16.3176" cy="16.3176" r="16.3176" transform="matrix(-1 0 0 1 158.252 521.648)" fill="#482C34"/>
<circle cx="16.3176" cy="16.3176" r="16.3176" transform="matrix(-1 0 0 1 186.884 644.492)" fill="#482C34"/>
<circle cx="16.3176" cy="16.3176" r="16.3176" transform="matrix(-1 0 0 1 157.021 644.492)" fill="#482C34"/>
<rect width="35.0983" height="120.073" transform="matrix(-1 0 0 1 285.921 27.365)" fill="#482C34"/>
<circle cx="16.3176" cy="16.3176" r="16.3176" transform="matrix(-1 0 0 1 299.467 11.0474)" fill="#482C34"/>
<circle cx="16.3176" cy="16.3176" r="16.3176" transform="matrix(-1 0 0 1 269.603 11.0474)" fill="#482C34"/>
<circle cx="16.3176" cy="16.3176" r="16.3176" transform="matrix(-1 0 0 1 298.235 133.891)" fill="#482C34"/>
<circle cx="16.3176" cy="16.3176" r="16.3176" transform="matrix(-1 0 0 1 268.372 133.891)" fill="#482C34"/>
<rect width="35.0983" height="120.073" transform="matrix(-1 0 0 1 288.076 232.413)" fill="#482C34"/>
<circle cx="16.3176" cy="16.3176" r="16.3176" transform="matrix(-1 0 0 1 301.622 216.095)" fill="#482C34"/>
<circle cx="16.3176" cy="16.3176" r="16.3176" transform="matrix(-1 0 0 1 271.758 216.095)" fill="#482C34"/>
<circle cx="16.3176" cy="16.3176" r="16.3176" transform="matrix(-1 0 0 1 300.391 338.939)" fill="#482C34"/>
<circle cx="16.3176" cy="16.3176" r="16.3176" transform="matrix(-1 0 0 1 270.526 338.939)" fill="#482C34"/>
<rect width="35.0983" height="120.073" transform="matrix(-1 0 0 1 282.534 642.508)" fill="#482C34"/>
<circle cx="16.3176" cy="16.3176" r="16.3176" transform="matrix(-1 0 0 1 296.081 626.191)" fill="#482C34"/>
<circle cx="16.3176" cy="16.3176" r="16.3176" transform="matrix(-1 0 0 1 266.216 626.191)" fill="#482C34"/>
<circle cx="16.3176" cy="16.3176" r="16.3176" transform="matrix(-1 0 0 1 294.85 749.035)" fill="#482C34"/>
<circle cx="16.3176" cy="16.3176" r="16.3176" transform="matrix(-1 0 0 1 264.985 749.035)" fill="#482C34"/>
<rect width="35.0983" height="120.073" transform="matrix(-1 0 0 1 284.689 437.461)" fill="#482C34"/>
<circle cx="16.3176" cy="16.3176" r="16.3176" transform="matrix(-1 0 0 1 298.235 421.143)" fill="#482C34"/>
<circle cx="16.3176" cy="16.3176" r="16.3176" transform="matrix(-1 0 0 1 268.372 421.143)" fill="#482C34"/>
<circle cx="16.3176" cy="16.3176" r="16.3176" transform="matrix(-1 0 0 1 297.004 543.987)" fill="#482C34"/>
<circle cx="16.3176" cy="16.3176" r="16.3176" transform="matrix(-1 0 0 1 267.14 543.987)" fill="#482C34"/>
<rect width="35.0983" height="120.073" transform="matrix(-1 0 0 1 392.544 127.87)" fill="#482C34"/>
<circle cx="16.3176" cy="16.3176" r="16.3176" transform="matrix(-1 0 0 1 406.09 111.552)" fill="#482C34"/>
<circle cx="16.3176" cy="16.3176" r="16.3176" transform="matrix(-1 0 0 1 376.226 111.552)" fill="#482C34"/>
<circle cx="16.3176" cy="16.3176" r="16.3176" transform="matrix(-1 0 0 1 404.858 234.396)" fill="#482C34"/>
<circle cx="16.3176" cy="16.3176" r="16.3176" transform="matrix(-1 0 0 1 374.995 234.396)" fill="#482C34"/>
<rect width="35.0983" height="120.073" transform="matrix(-1 0 0 1 394.698 -77.1772)" fill="#482C34"/>
<circle cx="16.3176" cy="16.3176" r="16.3176" transform="matrix(-1 0 0 1 407.014 29.3491)" fill="#482C34"/>
<circle cx="16.3176" cy="16.3176" r="16.3176" transform="matrix(-1 0 0 1 377.149 29.3491)" fill="#482C34"/>
<rect width="35.0983" height="120.073" transform="matrix(-1 0 0 1 394.698 332.918)" fill="#482C34"/>
<circle cx="16.3176" cy="16.3176" r="16.3176" transform="matrix(-1 0 0 1 408.245 316.601)" fill="#482C34"/>
<circle cx="16.3176" cy="16.3176" r="16.3176" transform="matrix(-1 0 0 1 378.381 316.601)" fill="#482C34"/>
<circle cx="16.3176" cy="16.3176" r="16.3176" transform="matrix(-1 0 0 1 407.014 439.445)" fill="#482C34"/>
<circle cx="16.3176" cy="16.3176" r="16.3176" transform="matrix(-1 0 0 1 377.149 439.445)" fill="#482C34"/>
<rect width="35.0983" height="120.073" transform="matrix(-1 0 0 1 389.157 743.014)" fill="#482C34"/>
<circle cx="16.3176" cy="16.3176" r="16.3176" transform="matrix(-1 0 0 1 402.704 726.696)" fill="#482C34"/>
<circle cx="16.3176" cy="16.3176" r="16.3176" transform="matrix(-1 0 0 1 372.839 726.696)" fill="#482C34"/>
<rect width="35.0983" height="120.073" transform="matrix(-1 0 0 1 391.312 537.966)" fill="#482C34"/>
<circle cx="16.3176" cy="16.3176" r="16.3176" transform="matrix(-1 0 0 1 404.858 521.648)" fill="#482C34"/>
<circle cx="16.3176" cy="16.3176" r="16.3176" transform="matrix(-1 0 0 1 374.995 521.648)" fill="#482C34"/>
<circle cx="16.3176" cy="16.3176" r="16.3176" transform="matrix(-1 0 0 1 403.627 644.492)" fill="#482C34"/>
<circle cx="16.3176" cy="16.3176" r="16.3176" transform="matrix(-1 0 0 1 373.763 644.492)" fill="#482C34"/>
<rect width="35.0983" height="120.073" transform="matrix(-1 0 0 1 499.167 27.365)" fill="#482C34"/>
<circle cx="16.3176" cy="16.3176" r="16.3176" transform="matrix(-1 0 0 1 512.713 11.0474)" fill="#482C34"/>
<circle cx="16.3176" cy="16.3176" r="16.3176" transform="matrix(-1 0 0 1 482.849 11.0474)" fill="#482C34"/>
<circle cx="16.3176" cy="16.3176" r="16.3176" transform="matrix(-1 0 0 1 511.481 133.891)" fill="#482C34"/>
<circle cx="16.3176" cy="16.3176" r="16.3176" transform="matrix(-1 0 0 1 481.617 133.891)" fill="#482C34"/>
<rect width="35.0983" height="120.073" transform="matrix(-1 0 0 1 501.321 232.413)" fill="#482C34"/>
<circle cx="16.3176" cy="16.3176" r="16.3176" transform="matrix(-1 0 0 1 514.868 216.095)" fill="#482C34"/>
<circle cx="16.3176" cy="16.3176" r="16.3176" transform="matrix(-1 0 0 1 485.003 216.095)" fill="#482C34"/>
<circle cx="16.3176" cy="16.3176" r="16.3176" transform="matrix(-1 0 0 1 513.636 338.939)" fill="#482C34"/>
<circle cx="16.3176" cy="16.3176" r="16.3176" transform="matrix(-1 0 0 1 483.772 338.939)" fill="#482C34"/>
<rect width="35.0983" height="120.073" transform="matrix(-1 0 0 1 495.78 642.508)" fill="#482C34"/>
<circle cx="16.3176" cy="16.3176" r="16.3176" transform="matrix(-1 0 0 1 509.327 626.191)" fill="#482C34"/>
<circle cx="16.3176" cy="16.3176" r="16.3176" transform="matrix(-1 0 0 1 479.462 626.191)" fill="#482C34"/>
<circle cx="16.3176" cy="16.3176" r="16.3176" transform="matrix(-1 0 0 1 508.095 749.035)" fill="#482C34"/>
<circle cx="16.3176" cy="16.3176" r="16.3176" transform="matrix(-1 0 0 1 478.23 749.035)" fill="#482C34"/>
<rect width="35.0983" height="120.073" transform="matrix(-1 0 0 1 497.935 437.461)" fill="#482C34"/>
<circle cx="16.3176" cy="16.3176" r="16.3176" transform="matrix(-1 0 0 1 511.481 421.143)" fill="#482C34"/>
<circle cx="16.3176" cy="16.3176" r="16.3176" transform="matrix(-1 0 0 1 481.617 421.143)" fill="#482C34"/>
<circle cx="16.3176" cy="16.3176" r="16.3176" transform="matrix(-1 0 0 1 510.25 543.987)" fill="#482C34"/>
<circle cx="16.3176" cy="16.3176" r="16.3176" transform="matrix(-1 0 0 1 480.386 543.987)" fill="#482C34"/>
<rect width="35.0983" height="120.073" transform="matrix(-1 0 0 1 617.15 127.87)" fill="#482C34"/>
<circle cx="16.3176" cy="16.3176" r="16.3176" transform="matrix(-1 0 0 1 630.696 111.552)" fill="#482C34"/>
<circle cx="16.3176" cy="16.3176" r="16.3176" transform="matrix(-1 0 0 1 600.832 111.552)" fill="#482C34"/>
<circle cx="16.3176" cy="16.3176" r="16.3176" transform="matrix(-1 0 0 1 629.465 234.396)" fill="#482C34"/>
<circle cx="16.3176" cy="16.3176" r="16.3176" transform="matrix(-1 0 0 1 599.601 234.396)" fill="#482C34"/>
<rect width="35.0983" height="120.073" transform="matrix(-1 0 0 1 619.305 -77.1772)" fill="#482C34"/>
<circle cx="16.3176" cy="16.3176" r="16.3176" transform="matrix(-1 0 0 1 631.62 29.3491)" fill="#482C34"/>
<circle cx="16.3176" cy="16.3176" r="16.3176" transform="matrix(-1 0 0 1 601.755 29.3491)" fill="#482C34"/>
<rect width="35.0983" height="120.073" transform="matrix(-1 0 0 1 619.305 332.918)" fill="#482C34"/>
<circle cx="16.3176" cy="16.3176" r="16.3176" transform="matrix(-1 0 0 1 632.852 316.601)" fill="#482C34"/>
<circle cx="16.3176" cy="16.3176" r="16.3176" transform="matrix(-1 0 0 1 602.987 316.601)" fill="#482C34"/>
<circle cx="16.3176" cy="16.3176" r="16.3176" transform="matrix(-1 0 0 1 631.62 439.445)" fill="#482C34"/>
<circle cx="16.3176" cy="16.3176" r="16.3176" transform="matrix(-1 0 0 1 601.755 439.445)" fill="#482C34"/>
<rect width="35.0983" height="120.073" transform="matrix(-1 0 0 1 613.763 743.014)" fill="#482C34"/>
<circle cx="16.3176" cy="16.3176" r="16.3176" transform="matrix(-1 0 0 1 627.31 726.696)" fill="#482C34"/>
<circle cx="16.3176" cy="16.3176" r="16.3176" transform="matrix(-1 0 0 1 597.446 726.696)" fill="#482C34"/>
<rect width="35.0983" height="120.073" transform="matrix(-1 0 0 1 615.918 537.966)" fill="#482C34"/>
<circle cx="16.3176" cy="16.3176" r="16.3176" transform="matrix(-1 0 0 1 629.465 521.648)" fill="#482C34"/>
<circle cx="16.3176" cy="16.3176" r="16.3176" transform="matrix(-1 0 0 1 599.601 521.648)" fill="#482C34"/>
<circle cx="16.3176" cy="16.3176" r="16.3176" transform="matrix(-1 0 0 1 628.233 644.492)" fill="#482C34"/>
<circle cx="16.3176" cy="16.3176" r="16.3176" transform="matrix(-1 0 0 1 598.369 644.492)" fill="#482C34"/>
<rect width="35.0983" height="120.073" transform="matrix(-1 0 0 1 735.136 27.3647)" fill="#482C34"/>
<circle cx="16.3176" cy="16.3176" r="16.3176" transform="matrix(-1 0 0 1 748.682 11.0474)" fill="#482C34"/>
<circle cx="16.3176" cy="16.3176" r="16.3176" transform="matrix(-1 0 0 1 718.817 11.0474)" fill="#482C34"/>
<circle cx="16.3176" cy="16.3176" r="16.3176" transform="matrix(-1 0 0 1 747.45 133.891)" fill="#482C34"/>
<circle cx="16.3176" cy="16.3176" r="16.3176" transform="matrix(-1 0 0 1 717.586 133.891)" fill="#482C34"/>
<rect width="35.0983" height="120.073" transform="matrix(-1 0 0 1 737.29 232.413)" fill="#482C34"/>
<circle cx="16.3176" cy="16.3176" r="16.3176" transform="matrix(-1 0 0 1 750.837 216.095)" fill="#482C34"/>
<circle cx="16.3176" cy="16.3176" r="16.3176" transform="matrix(-1 0 0 1 720.973 216.095)" fill="#482C34"/>
<circle cx="16.3176" cy="16.3176" r="16.3176" transform="matrix(-1 0 0 1 749.605 338.939)" fill="#482C34"/>
<circle cx="16.3176" cy="16.3176" r="16.3176" transform="matrix(-1 0 0 1 719.741 338.939)" fill="#482C34"/>
<rect width="35.0983" height="120.073" transform="matrix(-1 0 0 1 731.748 642.508)" fill="#482C34"/>
<circle cx="16.3176" cy="16.3176" r="16.3176" transform="matrix(-1 0 0 1 745.295 626.191)" fill="#482C34"/>
<circle cx="16.3176" cy="16.3176" r="16.3176" transform="matrix(-1 0 0 1 715.431 626.191)" fill="#482C34"/>
<circle cx="16.3176" cy="16.3176" r="16.3176" transform="matrix(-1 0 0 1 744.064 749.035)" fill="#482C34"/>
<circle cx="16.3176" cy="16.3176" r="16.3176" transform="matrix(-1 0 0 1 714.199 749.035)" fill="#482C34"/>
<rect width="35.0983" height="120.073" transform="matrix(-1 0 0 1 733.903 437.46)" fill="#482C34"/>
<circle cx="16.3176" cy="16.3176" r="16.3176" transform="matrix(-1 0 0 1 747.45 421.143)" fill="#482C34"/>
<circle cx="16.3176" cy="16.3176" r="16.3176" transform="matrix(-1 0 0 1 717.586 421.143)" fill="#482C34"/>
<circle cx="16.3176" cy="16.3176" r="16.3176" transform="matrix(-1 0 0 1 746.218 543.987)" fill="#482C34"/>
<circle cx="16.3176" cy="16.3176" r="16.3176" transform="matrix(-1 0 0 1 716.354 543.987)" fill="#482C34"/>
<rect width="35.0983" height="120.073" transform="matrix(-1 0 0 1 841.758 127.87)" fill="#482C34"/>
<circle cx="16.3176" cy="16.3176" r="16.3176" transform="matrix(-1 0 0 1 855.305 111.552)" fill="#482C34"/>
<circle cx="16.3176" cy="16.3176" r="16.3176" transform="matrix(-1 0 0 1 825.44 111.552)" fill="#482C34"/>
<circle cx="16.3176" cy="16.3176" r="16.3176" transform="matrix(-1 0 0 1 854.073 234.396)" fill="#482C34"/>
<circle cx="16.3176" cy="16.3176" r="16.3176" transform="matrix(-1 0 0 1 824.209 234.396)" fill="#482C34"/>
<rect width="35.0983" height="120.073" transform="matrix(-1 0 0 1 843.913 -77.1772)" fill="#482C34"/>
<circle cx="16.3176" cy="16.3176" r="16.3176" transform="matrix(-1 0 0 1 856.228 29.3491)" fill="#482C34"/>
<circle cx="16.3176" cy="16.3176" r="16.3176" transform="matrix(-1 0 0 1 826.364 29.3491)" fill="#482C34"/>
<rect width="35.0983" height="120.073" transform="matrix(-1 0 0 1 843.913 332.918)" fill="#482C34"/>
<circle cx="16.3176" cy="16.3176" r="16.3176" transform="matrix(-1 0 0 1 857.459 316.601)" fill="#482C34"/>
<circle cx="16.3176" cy="16.3176" r="16.3176" transform="matrix(-1 0 0 1 827.595 316.601)" fill="#482C34"/>
<circle cx="16.3176" cy="16.3176" r="16.3176" transform="matrix(-1 0 0 1 856.228 439.445)" fill="#482C34"/>
<circle cx="16.3176" cy="16.3176" r="16.3176" transform="matrix(-1 0 0 1 826.364 439.445)" fill="#482C34"/>
<rect width="35.0983" height="120.073" transform="matrix(-1 0 0 1 838.371 743.014)" fill="#482C34"/>
<circle cx="16.3176" cy="16.3176" r="16.3176" transform="matrix(-1 0 0 1 851.918 726.696)" fill="#482C34"/>
<circle cx="16.3176" cy="16.3176" r="16.3176" transform="matrix(-1 0 0 1 822.054 726.696)" fill="#482C34"/>
<rect width="35.0983" height="120.073" transform="matrix(-1 0 0 1 840.526 537.966)" fill="#482C34"/>
<circle cx="16.3176" cy="16.3176" r="16.3176" transform="matrix(-1 0 0 1 854.072 521.648)" fill="#482C34"/>
<circle cx="16.3176" cy="16.3176" r="16.3176" transform="matrix(-1 0 0 1 824.208 521.648)" fill="#482C34"/>
<circle cx="16.3176" cy="16.3176" r="16.3176" transform="matrix(-1 0 0 1 852.841 644.492)" fill="#482C34"/>
<circle cx="16.3176" cy="16.3176" r="16.3176" transform="matrix(-1 0 0 1 822.977 644.492)" fill="#482C34"/>
<rect width="35.0983" height="120.073" transform="matrix(-1 0 0 1 948.381 27.3647)" fill="#482C34"/>
<circle cx="16.3176" cy="16.3176" r="16.3176" transform="matrix(-1 0 0 1 961.927 11.0474)" fill="#482C34"/>
<circle cx="16.3176" cy="16.3176" r="16.3176" transform="matrix(-1 0 0 1 932.063 11.0474)" fill="#482C34"/>
<circle cx="16.3176" cy="16.3176" r="16.3176" transform="matrix(-1 0 0 1 960.696 133.891)" fill="#482C34"/>
<circle cx="16.3176" cy="16.3176" r="16.3176" transform="matrix(-1 0 0 1 930.832 133.891)" fill="#482C34"/>
<rect width="35.0983" height="120.073" transform="matrix(-1 0 0 1 950.536 232.413)" fill="#482C34"/>
<circle cx="16.3176" cy="16.3176" r="16.3176" transform="matrix(-1 0 0 1 964.083 216.095)" fill="#482C34"/>
<circle cx="16.3176" cy="16.3176" r="16.3176" transform="matrix(-1 0 0 1 934.218 216.095)" fill="#482C34"/>
<circle cx="16.3176" cy="16.3176" r="16.3176" transform="matrix(-1 0 0 1 962.851 338.939)" fill="#482C34"/>
<circle cx="16.3176" cy="16.3176" r="16.3176" transform="matrix(-1 0 0 1 932.987 338.939)" fill="#482C34"/>
<rect width="35.0983" height="120.073" transform="matrix(-1 0 0 1 944.995 642.508)" fill="#482C34"/>
<circle cx="16.3176" cy="16.3176" r="16.3176" transform="matrix(-1 0 0 1 958.541 626.191)" fill="#482C34"/>
<circle cx="16.3176" cy="16.3176" r="16.3176" transform="matrix(-1 0 0 1 928.677 626.191)" fill="#482C34"/>
<circle cx="16.3176" cy="16.3176" r="16.3176" transform="matrix(-1 0 0 1 957.31 749.035)" fill="#482C34"/>
<circle cx="16.3176" cy="16.3176" r="16.3176" transform="matrix(-1 0 0 1 927.445 749.035)" fill="#482C34"/>
<rect width="35.0983" height="120.073" transform="matrix(-1 0 0 1 947.149 437.46)" fill="#482C34"/>
<circle cx="16.3176" cy="16.3176" r="16.3176" transform="matrix(-1 0 0 1 960.696 421.143)" fill="#482C34"/>
<circle cx="16.3176" cy="16.3176" r="16.3176" transform="matrix(-1 0 0 1 930.832 421.143)" fill="#482C34"/>
<circle cx="16.3176" cy="16.3176" r="16.3176" transform="matrix(-1 0 0 1 959.465 543.987)" fill="#482C34"/>
<circle cx="16.3176" cy="16.3176" r="16.3176" transform="matrix(-1 0 0 1 929.601 543.987)" fill="#482C34"/>
<rect width="35.0983" height="120.073" transform="matrix(-1 0 0 1 1066.36 127.87)" fill="#482C34"/>
<circle cx="16.3176" cy="16.3176" r="16.3176" transform="matrix(-1 0 0 1 1079.91 111.552)" fill="#482C34"/>
<circle cx="16.3176" cy="16.3176" r="16.3176" transform="matrix(-1 0 0 1 1050.05 111.552)" fill="#482C34"/>
<circle cx="16.3176" cy="16.3176" r="16.3176" transform="matrix(-1 0 0 1 1078.68 234.396)" fill="#482C34"/>
<circle cx="16.3176" cy="16.3176" r="16.3176" transform="matrix(-1 0 0 1 1048.82 234.396)" fill="#482C34"/>
<rect width="35.0983" height="120.073" transform="matrix(-1 0 0 1 1068.52 -77.1772)" fill="#482C34"/>
<circle cx="16.3176" cy="16.3176" r="16.3176" transform="matrix(-1 0 0 1 1080.83 29.3491)" fill="#482C34"/>
<circle cx="16.3176" cy="16.3176" r="16.3176" transform="matrix(-1 0 0 1 1050.97 29.3491)" fill="#482C34"/>
<rect width="35.0983" height="120.073" transform="matrix(-1 0 0 1 1068.52 332.918)" fill="#482C34"/>
<circle cx="16.3176" cy="16.3176" r="16.3176" transform="matrix(-1 0 0 1 1082.07 316.601)" fill="#482C34"/>
<circle cx="16.3176" cy="16.3176" r="16.3176" transform="matrix(-1 0 0 1 1052.2 316.601)" fill="#482C34"/>
<circle cx="16.3176" cy="16.3176" r="16.3176" transform="matrix(-1 0 0 1 1080.83 439.445)" fill="#482C34"/>
<circle cx="16.3176" cy="16.3176" r="16.3176" transform="matrix(-1 0 0 1 1050.97 439.445)" fill="#482C34"/>
<rect width="35.0983" height="120.073" transform="matrix(-1 0 0 1 1062.98 743.014)" fill="#482C34"/>
<circle cx="16.3176" cy="16.3176" r="16.3176" transform="matrix(-1 0 0 1 1076.53 726.696)" fill="#482C34"/>
<circle cx="16.3176" cy="16.3176" r="16.3176" transform="matrix(-1 0 0 1 1046.66 726.696)" fill="#482C34"/>
<rect width="35.0983" height="120.073" transform="matrix(-1 0 0 1 1065.13 537.966)" fill="#482C34"/>
<circle cx="16.3176" cy="16.3176" r="16.3176" transform="matrix(-1 0 0 1 1078.68 521.648)" fill="#482C34"/>
<circle cx="16.3176" cy="16.3176" r="16.3176" transform="matrix(-1 0 0 1 1048.81 521.648)" fill="#482C34"/>
<circle cx="16.3176" cy="16.3176" r="16.3176" transform="matrix(-1 0 0 1 1077.45 644.492)" fill="#482C34"/>
<circle cx="16.3176" cy="16.3176" r="16.3176" transform="matrix(-1 0 0 1 1047.58 644.492)" fill="#482C34"/>
<rect width="35.0983" height="120.073" transform="matrix(-1 0 0 1 1176.48 27.3647)" fill="#482C34"/>
<circle cx="16.3176" cy="16.3176" r="16.3176" transform="matrix(-1 0 0 1 1190.03 11.0474)" fill="#482C34"/>
<circle cx="16.3176" cy="16.3176" r="16.3176" transform="matrix(-1 0 0 1 1160.17 11.0474)" fill="#482C34"/>
<circle cx="16.3176" cy="16.3176" r="16.3176" transform="matrix(-1 0 0 1 1188.8 133.891)" fill="#482C34"/>
<circle cx="16.3176" cy="16.3176" r="16.3176" transform="matrix(-1 0 0 1 1158.94 133.891)" fill="#482C34"/>
<rect width="35.0983" height="120.073" transform="matrix(-1 0 0 1 1178.64 232.413)" fill="#482C34"/>
<circle cx="16.3176" cy="16.3176" r="16.3176" transform="matrix(-1 0 0 1 1192.19 216.095)" fill="#482C34"/>
<circle cx="16.3176" cy="16.3176" r="16.3176" transform="matrix(-1 0 0 1 1162.32 216.095)" fill="#482C34"/>
<circle cx="16.3176" cy="16.3176" r="16.3176" transform="matrix(-1 0 0 1 1190.95 338.939)" fill="#482C34"/>
<circle cx="16.3176" cy="16.3176" r="16.3176" transform="matrix(-1 0 0 1 1161.09 338.939)" fill="#482C34"/>
<rect width="35.0983" height="120.073" transform="matrix(-1 0 0 1 1173.1 642.508)" fill="#482C34"/>
<circle cx="16.3176" cy="16.3176" r="16.3176" transform="matrix(-1 0 0 1 1186.64 626.191)" fill="#482C34"/>
<circle cx="16.3176" cy="16.3176" r="16.3176" transform="matrix(-1 0 0 1 1156.78 626.191)" fill="#482C34"/>
<circle cx="16.3176" cy="16.3176" r="16.3176" transform="matrix(-1 0 0 1 1185.41 749.035)" fill="#482C34"/>
<circle cx="16.3176" cy="16.3176" r="16.3176" transform="matrix(-1 0 0 1 1155.55 749.035)" fill="#482C34"/>
<rect width="35.0983" height="120.073" transform="matrix(-1 0 0 1 1175.25 437.461)" fill="#482C34"/>
<circle cx="16.3176" cy="16.3176" r="16.3176" transform="matrix(-1 0 0 1 1188.8 421.143)" fill="#482C34"/>
<circle cx="16.3176" cy="16.3176" r="16.3176" transform="matrix(-1 0 0 1 1158.94 421.143)" fill="#482C34"/>
<circle cx="16.3176" cy="16.3176" r="16.3176" transform="matrix(-1 0 0 1 1187.57 543.987)" fill="#482C34"/>
<circle cx="16.3176" cy="16.3176" r="16.3176" transform="matrix(-1 0 0 1 1157.7 543.987)" fill="#482C34"/>
</g>
<rect x="180.428" y="400.412" width="805.414" height="207.554" transform="rotate(-14.2 180.428 400.412)" fill="#D9D9D9"/>
<circle cx="195.728" cy="408.995" r="81.912" transform="rotate(-14.2 195.728 408.995)" fill="#D9D9D9"/>
<circle cx="227.69" cy="569.895" r="81.912" transform="rotate(-14.2 227.69 569.895)" fill="#D9D9D9"/>
<circle cx="972.31" cy="229.321" r="81.912" transform="rotate(-14.2 972.31 229.321)" fill="#D9D9D9"/>
<circle cx="1004.27" cy="390.221" r="81.912" transform="rotate(-14.2 1004.27 390.221)" fill="#D9D9D9"/>
<path d="M395.265 436.38L363.797 444.345L360.423 431.015L366.482 429.481L357.98 395.892L351.921 397.426L348.547 384.096L387.248 374.3C393.509 372.716 398.424 372.815 401.991 374.598C405.584 376.375 408.121 380.192 409.604 386.049C410.594 389.962 410.26 393.257 408.6 395.934C406.94 398.61 404.184 400.826 400.33 402.58C404.112 402.241 407.07 402.943 409.204 404.686C411.362 406.423 412.848 408.894 413.659 412.101L414.896 416.986L423.34 414.848L426.772 428.405L414.578 431.491C411.978 432.15 409.86 432.592 408.225 432.817C406.583 433.018 405.206 432.883 404.093 432.413C402.999 431.911 401.954 430.966 400.958 429.58C399.461 427.487 398.026 423.727 396.652 418.299C395.866 415.194 394.78 413.024 393.393 411.79C392 410.531 389.965 410.24 387.289 410.918L382.707 412.077L385.87 424.574L391.891 423.05L395.265 436.38ZM377.368 390.985L380.531 403.481L385.719 402.168C388.471 401.472 390.391 400.462 391.48 399.139C392.569 397.815 392.8 395.917 392.174 393.443C391.714 391.625 390.659 390.374 389.008 389.691C387.383 389.001 385.485 388.93 383.314 389.48L377.368 390.985ZM474.311 389.053L480.81 414.728L429.952 427.6L426.579 414.27L433.887 412.42L425.385 378.831L418.077 380.681L414.703 367.351L465.56 354.479L471.627 378.45L461.933 380.903L455.604 371.183L444.774 373.924L447.266 383.77L456.96 381.316L459.472 391.237L449.777 393.691L453.276 407.513L464.106 404.772L464.617 391.507L474.311 389.053ZM526.342 353.278L523.184 404.002L500.993 409.619L475.485 366.15L469.199 367.742L465.825 354.412L498.543 346.131L501.917 359.46L497.6 360.553L512.104 386.015L511.839 356.949L506.878 358.205L503.504 344.875L529.823 338.214L533.197 351.543L526.342 353.278ZM635.251 348.317L641.75 373.992L590.893 386.864L587.519 373.535L594.828 371.685L586.326 338.096L579.017 339.946L575.643 326.616L626.501 313.743L632.568 337.714L622.873 340.168L616.545 330.447L605.714 333.188L608.206 343.034L617.901 340.58L620.412 350.502L610.718 352.955L614.216 366.777L625.046 364.036L625.557 350.771L635.251 348.317ZM688.652 333.552L695.447 360.401L647.052 372.65L643.62 359.093L649.679 357.56L641.235 324.198L635.176 325.731L631.802 312.402L663.271 304.437L666.645 317.766L660.623 319.29L669.068 352.652L678.762 350.198L679.033 335.987L688.652 333.552ZM743.031 319.788L749.826 346.637L701.43 358.886L697.999 345.329L704.058 343.796L695.614 310.434L689.555 311.967L686.181 298.638L717.65 290.673L721.023 304.002L715.002 305.526L723.447 338.888L733.141 336.435L733.412 322.223L743.031 319.788ZM798.918 306.892L805.417 332.566L754.56 345.439L751.186 332.109L758.494 330.259L749.993 296.67L742.684 298.52L739.31 285.19L790.167 272.318L796.235 296.288L786.54 298.742L780.212 289.021L769.381 291.763L771.873 301.608L781.568 299.155L784.079 309.076L774.385 311.53L777.883 325.352L788.713 322.61L789.224 309.345L798.918 306.892ZM811.822 306.93C808.868 307.677 806.164 307.448 803.71 306.243C801.256 305.037 799.665 302.996 798.936 300.118C798.221 297.29 798.637 294.794 800.184 292.629C801.769 290.401 804.089 288.901 807.144 288.128C810.325 287.323 813.142 287.523 815.596 288.728C818.019 289.808 819.597 291.799 820.332 294.702C821.067 297.605 820.613 300.165 818.971 302.38C817.31 304.627 814.953 306.137 811.898 306.91L811.822 306.93ZM817.613 330.285C814.659 331.033 811.971 330.813 809.548 329.627C807.094 328.421 805.497 326.354 804.755 323.426C804.033 320.573 804.446 318.064 805.993 315.9C807.572 313.754 809.902 312.291 812.982 311.512C816.239 310.687 819.047 310.85 821.406 311.999C823.841 313.128 825.423 315.132 826.151 318.01C826.899 320.964 826.451 323.549 824.809 325.764C823.205 327.916 820.838 329.388 817.707 330.181L817.613 330.285ZM385.073 527.929L388.447 541.259L361.864 547.987L358.49 534.658L364.473 533.143L366.347 496.928L358.433 498.931L355.059 485.601L392.586 476.103L417.905 519.619L423.851 518.114L427.224 531.444L393.332 540.022L389.958 526.693L394.881 525.447L391.624 519.421L377.953 522.881L377.878 529.75L385.073 527.929ZM387.486 510.717L378.426 493.387L377.565 513.228L387.486 510.717ZM461.836 522.683L430.368 530.648L427.482 519.25L433.541 517.716L428.969 499.653L422.911 501.187L420.102 490.091L426.161 488.558L425.241 484.922C422.659 474.723 425.862 468.486 434.85 466.211C436.819 465.713 438.988 465.366 441.355 465.169C443.717 464.948 445.675 464.882 447.229 464.972L450.056 476.143C448.086 476.32 446.735 476.5 446.003 476.686C443.781 477.248 443.096 479.208 443.945 482.566L444.3 483.967L451.571 482.126L454.379 493.222L447.108 495.062L451.68 513.125L458.951 511.285L461.836 522.683ZM487.343 516.953C477.623 519.413 471.482 515.581 468.92 505.458L465.134 490.5L459.075 492.033L456.266 480.938L462.325 479.404L460.13 470.732L477.244 462.089L480.464 474.813L487.735 472.973L490.543 484.068L483.273 485.909L486.723 499.541C487.011 500.677 487.68 501.515 488.73 502.055C489.78 502.596 490.948 502.703 492.236 502.377C493.17 502.14 494.072 501.831 494.943 501.45L497.607 511.977C494.652 514.31 491.23 515.969 487.343 516.953ZM527.029 506.908C522.333 508.096 518.035 508.257 514.136 507.391C510.217 506.556 506.918 504.772 504.239 502.039C501.584 499.299 499.714 495.783 498.628 491.491C497.554 487.25 497.53 483.334 498.555 479.744C499.562 476.185 501.492 473.144 504.346 470.622C507.199 468.1 510.835 466.28 515.253 465.162C519.318 464.133 523.104 464.021 526.612 464.825C530.126 465.655 533.103 467.333 535.542 469.858C538.006 472.377 539.736 475.606 540.733 479.545C541.078 480.908 541.202 482.246 541.105 483.56L517.513 489.532C518.114 491.905 519.492 493.584 521.649 494.569C523.799 495.529 526.137 495.69 528.661 495.051C530.58 494.565 532.605 493.704 534.736 492.466C536.861 491.203 538.906 489.57 540.87 487.569L541.572 487.633L544.15 497.82C541.927 499.967 539.535 501.768 536.975 503.222C534.434 504.644 531.118 505.873 527.029 506.908ZM515.548 481.769L515.826 482.867L525.52 480.413L525.319 479.618C524.865 477.826 524.059 476.391 522.9 475.314C521.76 474.206 520.382 473.856 518.766 474.265C517.428 474.604 516.462 475.561 515.866 477.135C515.264 478.684 515.158 480.229 515.548 481.769ZM581.235 492.462L552.152 499.824L549.267 488.425L554.152 487.189L549.733 469.731L544.848 470.968L542.26 460.743L564.709 452.644L566.377 459.233C566.865 457.766 567.768 456.342 569.084 454.962C570.393 453.556 571.861 452.351 573.488 451.349C575.134 450.314 576.663 449.618 578.077 449.26L582.141 465.316C578.938 465.08 576.377 465.204 574.458 465.69C572.035 466.303 570.598 467.419 570.148 469.037C569.692 470.63 569.751 472.563 570.326 474.835L572.291 482.598L578.35 481.064L581.235 492.462ZM640.154 463.366L643.528 476.695L613.272 484.354L609.898 471.024L615.957 469.49L607.455 435.901L601.396 437.435L598.022 424.105L628.26 416.371L631.653 429.776L626.843 430.994L629.355 440.915L643.858 437.244L641.347 427.323L636.538 428.54L633.145 415.135L663.383 407.562L666.757 420.891L660.736 422.415L669.237 456.005L675.258 454.481L678.632 467.81L648.413 475.459L645.039 462.129L649.849 460.912L647.136 450.195L632.633 453.866L635.345 464.583L640.154 463.366ZM707.433 461.246C702.839 462.409 698.623 462.576 694.787 461.747C690.906 460.956 687.598 459.188 684.861 456.442C682.125 453.696 680.194 450.102 679.07 445.659C677.951 441.241 677.962 437.249 679.101 433.683C680.234 430.092 682.331 427.077 685.394 424.636C688.45 422.17 692.25 420.362 696.794 419.212C701.464 418.03 705.721 417.812 709.563 418.559C713.431 419.299 716.701 420.97 719.374 423.57C722.041 426.146 723.93 429.63 725.042 434.023C726.166 438.466 726.191 442.543 725.115 446.253C724.015 449.97 721.936 453.116 718.881 455.689C715.844 458.23 712.028 460.083 707.433 461.246ZM704.634 450.188C706.301 449.766 707.33 448.633 707.723 446.787C708.103 444.999 707.829 442.274 706.903 438.614C706.053 435.256 705.048 432.931 703.889 431.64C702.748 430.317 701.319 429.873 699.602 430.307C697.961 430.723 696.941 431.787 696.542 433.5C696.137 435.187 696.359 437.71 697.209 441.067C698.116 444.652 699.184 447.176 700.414 448.637C701.637 450.074 703.044 450.591 704.634 450.188ZM752.837 449.753C744.708 451.811 739.356 447.753 736.781 437.579L733.168 423.302L728.283 424.539L725.695 414.314L748.143 406.215L754.92 432.988C755.169 433.972 755.765 434.788 756.708 435.436C757.645 436.059 758.605 436.245 759.59 435.996C760.726 435.709 761.514 435.106 761.953 434.189C762.412 433.241 762.497 432.198 762.209 431.062L758.615 416.861L754.98 417.782L752.392 407.557L773.591 399.774L781.173 429.728L786.058 428.491L788.943 439.89L765.919 445.717L764.423 439.81C763.609 442.218 762.226 444.288 760.273 446.018C758.345 447.741 755.867 448.987 752.837 449.753ZM822.911 431.292L793.828 438.653L790.943 427.255L795.828 426.018L791.409 408.561L786.524 409.797L783.936 399.573L806.385 391.473L808.053 398.062C808.541 396.596 809.443 395.172 810.759 393.791C812.069 392.385 813.537 391.181 815.164 390.178C816.809 389.144 818.339 388.448 819.752 388.09L823.816 404.146C820.614 403.909 818.053 404.033 816.134 404.519C813.71 405.132 812.274 406.248 811.824 407.867C811.367 409.46 811.427 411.392 812.002 413.664L813.967 421.427L820.026 419.894L822.911 431.292ZM856.634 423.481C851.459 424.791 846.532 424.588 841.853 422.871L841.466 426.595L834.423 428.378L830.637 413.42L839.081 411.283C839.895 413.118 841.226 414.608 843.073 415.752C844.921 416.896 846.804 417.226 848.723 416.74C849.455 416.555 850.035 416.193 850.463 415.655C850.916 415.11 851.024 414.371 850.788 413.437C850.552 412.503 849.807 411.791 848.555 411.302C847.272 410.795 845.429 410.307 843.028 409.841C840.101 409.211 837.684 408.574 835.774 407.929C833.84 407.291 832.049 406.266 830.403 404.856C828.75 403.421 827.617 401.492 827.004 399.068C826.371 396.569 826.642 394.19 827.817 391.932C828.998 389.699 830.808 387.776 833.247 386.165C835.687 384.554 838.485 383.349 841.64 382.55C845.755 381.508 849.855 381.626 853.939 382.902L854.262 380.201L860.549 378.61L863.606 390.69L856.298 392.54C855.251 391.059 854.016 390.001 852.593 389.368C851.17 388.734 849.664 388.618 848.073 389.021C846.205 389.494 845.421 390.323 845.721 391.51C845.951 392.311 846.619 392.881 847.726 393.219C848.825 393.531 850.57 393.896 852.958 394.312C854.437 394.529 855.802 394.774 857.053 395.048C858.305 395.323 859.436 395.6 860.448 395.882C862.477 396.47 864.387 397.544 866.179 399.105C867.965 400.641 869.212 402.81 869.922 405.612C870.676 408.591 870.538 411.286 869.509 413.695C868.487 416.13 866.832 418.187 864.544 419.868C862.25 421.523 859.613 422.727 856.634 423.481Z" fill="#64433A"/>
<rect x="544.734" y="341.827" width="18.7805" height="52.7742" transform="rotate(-13.7426 544.734 341.827)" fill="#64433A"/>
<ellipse cx="544.907" cy="339.893" rx="9.39025" ry="7.51531" transform="rotate(-13.7426 544.907 339.893)" fill="#64433A"/>
<ellipse cx="562.339" cy="335.63" rx="9.39025" ry="7.51531" transform="rotate(-13.7426 562.339 335.63)" fill="#64433A"/>
<ellipse cx="558.246" cy="392.68" rx="9.39025" ry="7.51531" transform="rotate(-13.7426 558.246 392.68)" fill="#64433A"/>
<ellipse cx="575.678" cy="388.417" rx="9.39025" ry="7.51531" transform="rotate(-13.7426 575.678 388.417)" fill="#64433A"/>
<path d="M372.725 609.069C370.483 609.636 368.323 609.678 366.245 609.194C364.149 608.725 362.307 607.687 360.718 606.079C359.139 604.47 358.001 602.286 357.304 599.529C356.721 597.227 356.61 595.025 356.97 592.925C357.336 590.845 358.188 589.055 359.528 587.555C360.875 586.043 362.7 584.996 365.003 584.413C366.174 584.117 367.295 584.129 368.364 584.449C369.441 584.757 370.293 585.277 370.919 586.011L370.923 583.415L375.634 582.223L378.137 592.114L373.305 593.337L373.178 592.837C372.854 591.554 372.29 590.58 371.487 589.912C370.695 589.243 369.718 589.055 368.556 589.349C367.779 589.545 367.137 590.025 366.632 590.786C366.139 591.556 365.829 592.478 365.703 593.552C365.575 594.616 365.641 595.663 365.902 596.693C366.416 598.723 367.323 600.185 368.624 601.081C369.923 601.967 371.45 602.187 373.208 601.742C374.45 601.428 375.549 600.93 376.504 600.248C377.47 599.563 378.236 598.896 378.802 598.248L379.209 598.451L380.841 604.904C379.745 605.966 378.523 606.823 377.173 607.476C375.823 608.129 374.34 608.66 372.725 609.069ZM401.448 589.906L404.166 600.646L384.807 605.544L383.435 600.122L385.859 599.508L382.482 586.163L380.058 586.777L378.709 581.445L391.297 578.259L392.646 583.591L390.237 584.201L393.614 597.546L397.492 596.565L397.601 590.88L401.448 589.906ZM417.798 591.523L419.147 596.855L406.559 600.04L405.21 594.708L407.634 594.095L404.234 580.659L401.81 581.272L400.461 575.941L413.049 572.755L414.398 578.087L411.989 578.697L415.389 592.133L417.798 591.523ZM433.466 593.699C431.224 594.266 429.065 594.308 426.986 593.824C424.891 593.355 423.048 592.317 421.46 590.709C419.881 589.099 418.743 586.916 418.046 584.159C417.463 581.857 417.352 579.655 417.712 577.555C418.078 575.475 418.93 573.685 420.27 572.185C421.617 570.673 423.442 569.626 425.745 569.043C426.916 568.747 428.036 568.759 429.106 569.079C430.183 569.387 431.035 569.907 431.661 570.641L431.665 568.045L436.376 566.853L438.879 576.744L434.047 577.967L433.92 577.467C433.596 576.184 433.032 575.21 432.229 574.542C431.437 573.873 430.46 573.685 429.298 573.978C428.521 574.175 427.879 574.655 427.373 575.416C426.88 576.186 426.571 577.108 426.445 578.182C426.317 579.246 426.383 580.293 426.644 581.323C427.157 583.353 428.065 584.815 429.366 585.711C430.664 586.597 432.192 586.817 433.949 586.372C435.192 586.058 436.29 585.56 437.246 584.877C438.212 584.193 438.978 583.526 439.544 582.878L439.95 583.081L441.583 589.534C440.487 590.596 439.264 591.453 437.915 592.106C436.565 592.759 435.082 593.29 433.466 593.699ZM458.137 586.989L445.549 590.174L444.2 584.842L446.623 584.229L443.224 570.793L440.8 571.407L439.451 566.075L451.554 563.012L452.903 568.344L450.979 568.831L452.367 574.314L454.978 567.819L453.629 562.487L463.066 560.099L464.415 565.431L462.325 565.96L458.999 573.007L459.052 573.219C460.688 572.805 462.042 572.763 463.114 573.094C464.184 573.414 464.894 574.266 465.244 575.649L465.865 578.103C465.944 578.416 466.1 578.672 466.333 578.871C466.574 579.057 466.85 579.111 467.164 579.032L468.89 578.595L470.24 583.927L464.696 585.33C461.302 586.188 459.214 585.067 458.429 581.967L457.762 579.331C457.632 578.816 457.338 578.354 456.879 577.943C456.418 577.523 455.96 577.37 455.506 577.485L453.31 578.041L454.379 582.267L456.787 581.657L458.137 586.989ZM488.9 573.531L490.249 578.863L479.616 581.554L478.267 576.222L480.66 575.617L481.411 561.13L478.245 561.932L476.896 556.6L491.907 552.801L502.033 570.208L504.411 569.607L505.761 574.939L492.204 578.369L490.854 573.037L492.824 572.539L491.521 570.128L486.052 571.512L486.022 574.26L488.9 573.531ZM489.866 566.647L486.242 559.714L485.897 567.651L489.866 566.647ZM515.295 566.756L516.667 572.179L507.018 574.62L505.646 569.198L508.1 568.577L504.715 555.201L502.322 555.807L500.973 550.475L512.106 547.658L523.276 560.079L521.006 551.111L518.583 551.724L517.234 546.393L526.883 543.951L528.232 549.283L525.839 549.888L530.588 568.656L521.408 570.979L510.874 559.477L512.871 567.369L515.295 566.756ZM551.937 557.484L553.309 562.907L540.161 566.234L538.789 560.811L541.106 560.225L539.983 555.786L531.383 548.486L529.671 548.919L528.322 543.587L541.227 540.321L542.577 545.653L541.213 545.998L544.99 549.33L546.136 544.752L543.94 545.308L542.591 539.976L552.24 537.535L553.589 542.867L550.862 543.556L548.228 552.83L549.559 558.086L551.937 557.484ZM575.895 545.797L575.546 557.28L567.411 559.338L557.391 541.904L554.907 542.533L553.55 537.171L567.046 533.756L568.403 539.118L566.101 539.701L570.698 547.676L571.106 532.728L577.316 531.157L584.549 543.688L584.838 534.959L582.733 535.492L581.376 530.13L591.373 527.6L592.73 532.962L590.185 533.606L589.754 553.685L581.529 555.766L575.895 545.797ZM610.081 542.868L611.43 548.2L599.327 551.263L597.978 545.931L600.402 545.317L597.002 531.881L594.578 532.495L593.229 527.163L605.324 524.07L606.681 529.432L604.757 529.919L605.762 533.888L611.563 532.42L610.559 528.451L608.635 528.938L607.278 523.575L619.374 520.547L620.723 525.879L618.315 526.488L621.714 539.924L624.123 539.315L625.472 544.647L613.384 547.706L612.035 542.374L613.959 541.887L612.874 537.6L607.073 539.068L608.157 543.355L610.081 542.868ZM645.807 528.574L648.405 538.844L628.062 543.991L626.713 538.659L629.636 537.92L626.237 524.484L623.313 525.224L621.964 519.892L642.307 514.744L644.733 524.332L640.856 525.314L638.324 521.425L633.992 522.521L634.989 526.46L638.867 525.479L639.871 529.447L635.993 530.428L637.392 535.957L641.724 534.861L641.929 529.555L645.807 528.574ZM663.114 535.122L650.526 538.307L649.177 532.975L651.6 532.362L648.201 518.926L645.777 519.539L644.428 514.207L659.909 510.29C662.413 509.656 664.379 509.696 665.806 510.41C667.243 511.121 668.258 512.647 668.851 514.99C669.247 516.556 669.113 517.873 668.449 518.944C667.785 520.015 666.682 520.901 665.14 521.602C666.653 521.467 667.837 521.748 668.69 522.445C669.553 523.14 670.147 524.128 670.472 525.411L670.966 527.365L674.344 526.51L675.717 531.933L670.839 533.167C669.799 533.43 668.952 533.607 668.298 533.697C667.641 533.778 667.09 533.724 666.645 533.535C666.207 533.335 665.789 532.957 665.391 532.402C664.792 531.565 664.218 530.061 663.669 527.89C663.355 526.648 662.92 525.78 662.366 525.286C661.808 524.783 660.994 524.666 659.924 524.937L658.091 525.401L659.356 530.4L661.765 529.79L663.114 535.122ZM655.956 516.964L657.221 521.962L659.296 521.437C660.397 521.159 661.165 520.755 661.601 520.226C662.036 519.696 662.129 518.937 661.878 517.947C661.694 517.22 661.272 516.72 660.612 516.446C659.962 516.17 659.203 516.142 658.334 516.362L655.956 516.964ZM694.733 516.193L697.332 526.463L676.989 531.611L675.64 526.279L678.563 525.539L675.163 512.103L672.24 512.843L670.891 507.511L691.234 502.364L693.66 511.952L689.782 512.933L687.251 509.045L682.919 510.141L683.916 514.079L687.793 513.098L688.798 517.067L684.92 518.048L686.319 523.577L690.651 522.481L690.856 517.175L694.733 516.193ZM723.188 514.119L724.567 519.572L711.071 522.987L709.691 517.534L712.175 516.905L708.806 503.591L706.67 504.131L707.069 508.446L702.813 509.523L700.413 500.041L723.089 494.303L725.489 503.785L721.247 504.859L719.546 500.873L717.334 501.433L720.703 514.747L723.188 514.119ZM742.901 515.4C740.387 516.036 738.074 516.047 735.962 515.431C733.861 514.813 732.092 513.681 730.655 512.036C729.228 510.388 728.208 508.352 727.594 505.928C726.958 503.414 726.878 501.102 727.355 498.994C727.829 496.875 728.845 495.076 730.405 493.596C731.972 492.104 734.028 491.035 736.573 490.391C739.108 489.75 741.418 489.708 743.504 490.266C745.582 490.836 747.334 491.94 748.758 493.578C750.193 495.213 751.227 497.283 751.861 499.788C752.474 502.211 752.545 504.487 752.073 506.616C751.602 508.745 750.584 510.582 749.02 512.127C747.465 513.67 745.426 514.761 742.901 515.4ZM741.54 510.023C742.631 509.747 743.297 508.875 743.538 507.406C743.789 505.935 743.634 504.094 743.075 501.882C742.53 499.731 741.817 498.101 740.935 496.992C740.063 495.88 739.061 495.468 737.93 495.754C736.789 496.042 736.099 496.883 735.86 498.276C735.622 499.669 735.775 501.441 736.319 503.591C736.879 505.803 737.614 507.497 738.524 508.675C739.434 509.852 740.44 510.301 741.54 510.023ZM777.332 506.688C776.504 506.897 775.781 507.016 775.165 507.043C774.549 507.07 773.953 507.011 773.38 506.866C772.816 506.718 772.196 506.499 771.521 506.208L771.343 507.736L766.451 508.974L764.584 501.597L769.446 500.367C769.974 501.136 770.606 501.615 771.341 501.805C772.085 501.982 772.931 501.951 773.88 501.711C774.466 501.562 774.936 501.32 775.292 500.983C775.644 500.636 775.771 500.265 775.671 499.871C775.546 499.376 775.241 499.062 774.755 498.926C774.267 498.781 773.613 498.7 772.791 498.682C771.746 498.667 770.787 498.614 769.915 498.523C769.053 498.43 768.269 498.306 767.564 498.151C766.153 497.842 764.919 497.209 763.86 496.252C762.801 495.295 762.03 493.862 761.547 491.953C761.177 490.489 761.168 489.116 761.52 487.834C761.865 486.565 762.546 485.474 763.561 484.562C764.584 483.637 765.894 482.972 767.489 482.568C769.438 482.075 771.135 482.307 772.581 483.263L772.993 481.643L777.34 480.543L779.169 487.769L774.518 488.945C773.854 488.146 773.215 487.637 772.6 487.416C771.986 487.195 771.219 487.201 770.3 487.434C769.603 487.61 769.095 487.873 768.775 488.223C768.452 488.562 768.346 488.949 768.456 489.383C768.579 489.868 768.95 490.166 769.569 490.278C770.181 490.403 771.02 490.448 772.086 490.415C773.955 490.372 775.609 490.496 777.047 490.787C778.455 491.087 779.676 491.707 780.71 492.649C781.751 493.578 782.496 494.932 782.946 496.709C783.327 498.214 783.359 499.656 783.042 501.036C782.715 502.419 782.055 503.612 781.062 504.616C780.08 505.616 778.836 506.307 777.332 506.688ZM803.015 493.919L804.395 499.372L790.899 502.787L789.519 497.334L792.003 496.706L788.634 483.391L786.498 483.931L786.897 488.247L782.641 489.324L780.241 479.841L802.917 474.103L805.316 483.586L801.075 484.659L799.374 480.673L797.162 481.233L800.531 494.548L803.015 493.919ZM818.057 490.242L819.406 495.574L808.773 498.265L807.424 492.933L809.817 492.327L810.568 477.841L807.402 478.642L806.053 473.31L821.064 469.512L831.19 486.919L833.568 486.317L834.918 491.649L821.361 495.079L820.011 489.748L821.981 489.249L820.678 486.839L815.209 488.223L815.179 490.97L818.057 490.242ZM819.023 483.357L815.399 476.425L815.054 484.361L819.023 483.357ZM849.49 487.962L836.902 491.147L835.553 485.815L837.976 485.202L834.577 471.766L832.153 472.379L830.804 467.047L846.285 463.13C848.789 462.496 850.755 462.536 852.182 463.249C853.619 463.96 854.634 465.487 855.226 467.83C855.622 469.395 855.489 470.713 854.825 471.784C854.161 472.854 853.058 473.74 851.516 474.442C853.029 474.306 854.212 474.587 855.066 475.285C855.929 475.979 856.523 476.968 856.848 478.251L857.342 480.205L860.72 479.35L862.092 484.773L857.215 486.007C856.175 486.27 855.328 486.447 854.674 486.537C854.017 486.617 853.466 486.563 853.021 486.375C852.583 486.174 852.165 485.796 851.767 485.242C851.168 484.405 850.594 482.901 850.045 480.729C849.731 479.487 849.296 478.62 848.741 478.126C848.184 477.622 847.37 477.506 846.3 477.777L844.467 478.24L845.732 483.239L848.14 482.63L849.49 487.962ZM842.332 469.803L843.597 474.802L845.672 474.277C846.773 473.998 847.541 473.594 847.977 473.065C848.412 472.536 848.505 471.776 848.254 470.787C848.07 470.06 847.648 469.559 846.988 469.286C846.338 469.01 845.579 468.982 844.71 469.202L842.332 469.803ZM878.905 474.716L880.285 480.169L866.788 483.584L865.408 478.131L867.892 477.503L864.523 464.188L862.388 464.728L862.786 469.044L858.53 470.121L856.131 460.638L878.806 454.901L881.206 464.383L876.965 465.456L875.263 461.47L873.051 462.03L876.421 475.345L878.905 474.716ZM890.512 456.129L892.207 468.175L885.852 469.815L881.606 458.383L880.46 453.854L889.366 451.6L890.512 456.129ZM891.272 477.921C890.03 478.235 888.931 478.159 887.974 477.692C887.013 477.204 886.389 476.395 886.103 475.264C885.809 474.103 885.97 473.084 886.587 472.208C887.221 471.317 888.139 470.72 889.34 470.415L889.371 470.408C890.583 470.101 891.705 470.183 892.737 470.652C893.736 471.119 894.383 471.933 894.676 473.095C894.963 474.226 894.789 475.237 894.155 476.128C893.495 477.004 892.534 477.602 891.272 477.921Z" fill="white"/>
</svg>
