<svg width="1200" height="800" viewBox="0 0 1200 800" fill="none" xmlns="http://www.w3.org/2000/svg">
<rect width="1200" height="800" fill="black" fill-opacity="0.75"/>
<path d="M148.141 179.766V213H88.2344V196.219H95.7344V154.922H88.2344V138.422H127.188V154.922H119.734V196.219H131.734L136.234 179.766H148.141ZM216.953 181.219V213H154V196.5H163.047V154.922H154V138.422H216.953V168.094H204.953L200.453 154.922H187.047V167.109H199.047V179.391H187.047V196.5H200.453L204.953 181.219H216.953ZM288.016 154.922L269.406 213H241.938L225.062 154.922H217.281V138.422H257.781V154.922H252.438L261.812 188.812L270.062 154.922H263.922V138.422H296.5V154.922H288.016ZM366.297 181.219V213H303.344V196.5H312.391V154.922H303.344V138.422H366.297V168.094H354.297L349.797 154.922H336.391V167.109H348.391V179.391H336.391V196.5H349.797L354.297 181.219H366.297ZM432.766 179.766V213H372.859V196.219H380.359V154.922H372.859V138.422H411.812V154.922H404.359V196.219H416.359L420.859 179.766H432.766ZM499.844 214.359C492.906 214.359 486.594 212.891 480.906 209.953C475.156 207.047 470.562 202.672 467.125 196.828C463.719 190.984 462.016 183.797 462.016 175.266C462.016 168.141 463.312 161.656 465.906 155.812C468.5 150.031 472.297 145.453 477.297 142.078C482.328 138.672 488.406 136.969 495.531 136.969C499.156 136.969 502.406 137.828 505.281 139.547C508.188 141.234 510.281 143.375 511.562 145.969L513.484 138.422H528.062V169.031H513.109V167.484C513.109 163.516 512.188 160.266 510.344 157.734C508.531 155.203 505.828 153.938 502.234 153.938C499.828 153.938 497.609 154.859 495.578 156.703C493.578 158.578 492 161.031 490.844 164.062C489.688 167.062 489.109 170.156 489.109 173.344C489.109 179.625 490.672 184.547 493.797 188.109C496.922 191.641 501.203 193.406 506.641 193.406C510.484 193.406 514.047 192.766 517.328 191.484C520.641 190.203 523.359 188.828 525.484 187.359L526.516 188.25V208.219C522.547 210.5 518.359 212.094 513.953 213C509.547 213.906 504.844 214.359 499.844 214.359ZM572.031 214.359C564.25 214.359 557.516 212.688 551.828 209.344C546.172 206 541.859 201.406 538.891 195.562C535.953 189.719 534.484 183.047 534.484 175.547C534.484 167.766 535.953 160.984 538.891 155.203C541.828 149.391 546.109 144.906 551.734 141.75C557.391 138.562 564.156 136.969 572.031 136.969C579.875 136.969 586.625 138.547 592.281 141.703C597.906 144.891 602.188 149.391 605.125 155.203C608.094 161.016 609.578 167.797 609.578 175.547C609.578 183.047 608.109 189.719 605.172 195.562C602.234 201.406 597.922 206 592.234 209.344C586.578 212.688 579.844 214.359 572.031 214.359ZM572.031 197.719C575.406 197.719 577.984 195.672 579.766 191.578C581.578 187.484 582.484 182.016 582.484 175.172C582.484 168.516 581.609 163.25 579.859 159.375C578.141 155.5 575.531 153.562 572.031 153.562C568.5 153.562 565.875 155.5 564.156 159.375C562.438 163.25 561.578 168.516 561.578 175.172C561.578 182.016 562.469 187.484 564.25 191.578C566.031 195.672 568.625 197.719 572.031 197.719ZM649.422 196.5V213H617.922V196.5H626.969V154.922H617.922V138.422H658.141L672.625 174.328L686.969 138.422H724.469V154.922H715.469V196.5H724.469V213H685.422V196.5H691.469V168.656L674.969 213H661.422L641.922 167.578V196.5H649.422ZM770.266 213H729.953V196.219H737.266V154.922H730.141V138.328H770.078C776.203 138.328 781.625 139 786.344 140.344C791.094 141.656 794.812 143.875 797.5 147C800.219 150.125 801.578 154.422 801.578 159.891C801.578 169.453 798.984 176.328 793.797 180.516C788.609 184.703 780.828 186.797 770.453 186.797C767.797 186.797 765.469 186.641 763.469 186.328V196.219H770.266V213ZM763.562 154.922V171.516H765.484C772.578 171.516 776.125 168.391 776.125 162.141C776.125 159.828 775.344 158.047 773.781 156.797C772.219 155.547 770.125 154.922 767.5 154.922H763.562ZM870.953 179.766V213H811.047V196.219H818.547V154.922H811.047V138.422H850V154.922H842.547V196.219H854.547L859.047 179.766H870.953ZM939.766 181.219V213H876.812V196.5H885.859V154.922H876.812V138.422H939.766V168.094H927.766L923.266 154.922H909.859V167.109H921.859V179.391H909.859V196.5H923.266L927.766 181.219H939.766ZM999.109 196.125V213H957.344V196.125H965.031V154.922H958.422L956.406 167.766H943.234V138.422H1013.41V167.766H1000.28L998.266 154.922H991.422V196.125H999.109ZM1084.42 181.219V213H1021.47V196.5H1030.52V154.922H1021.47V138.422H1084.42V168.094H1072.42L1067.92 154.922H1054.52V167.109H1066.52V179.391H1054.52V196.5H1067.92L1072.42 181.219H1084.42ZM1114.52 150.609L1110.58 186.891L1090.89 186.984L1086.95 150.609V136.594H1114.52V150.609ZM1100.69 214.547C1096.84 214.547 1093.7 213.516 1091.27 211.453C1088.83 209.328 1087.61 206.516 1087.61 203.016C1087.61 199.422 1088.83 196.578 1091.27 194.484C1093.77 192.359 1096.88 191.297 1100.59 191.297H1100.69C1104.44 191.297 1107.64 192.359 1110.3 194.484C1112.86 196.578 1114.14 199.422 1114.14 203.016C1114.14 206.516 1112.89 209.328 1110.39 211.453C1107.83 213.516 1104.59 214.547 1100.69 214.547Z" fill="white"/>
<rect x="187" y="329" width="194" height="56" fill="black"/>
<circle cx="179" cy="333" r="24" fill="black"/>
<circle cx="179" cy="376" r="24" fill="black"/>
<circle cx="386" cy="330" r="24" fill="black"/>
<circle cx="386" cy="373" r="24" fill="black"/>
<g opacity="0.99">
<rect x="504" y="329" width="194" height="56" fill="black"/>
<circle cx="496" cy="333" r="24" fill="black"/>
<circle cx="496" cy="376" r="24" fill="black"/>
<circle cx="703" cy="330" r="24" fill="black"/>
<circle cx="703" cy="373" r="24" fill="black"/>
</g>
<rect x="821" y="326" width="194" height="56" fill="black"/>
<circle cx="813" cy="330" r="24" fill="black"/>
<circle cx="813" cy="373" r="24" fill="black"/>
<circle cx="1020" cy="327" r="24" fill="black"/>
<circle cx="1020" cy="370" r="24" fill="black"/>
</svg>
